<svg width="122" height="26" viewBox="0 0 122 26" fill="none" xmlns="http://www.w3.org/2000/svg">
<g clip-path="url(#clip0_194_427)">
<path d="M43.0631 14.9731L42.336 17.0285H42.2754C42.1542 16.565 41.932 15.8597 41.5684 15.0134L37.6701 5.24017H33.8525V20.8168H36.3774V11.2048C36.3774 10.6003 36.3774 9.91519 36.3572 9.06885C36.337 8.64568 36.2966 8.32327 36.2764 8.08145H36.337C36.4582 8.68598 36.5996 9.1293 36.7006 9.41142L41.3866 20.7765H43.1641L47.8098 9.31066C47.9108 9.0487 48.0118 8.52478 48.1128 8.08145H48.1734C48.1128 9.23006 48.0724 10.2578 48.0522 10.8824V20.7564H50.7386V5.19987H47.0625L43.0631 14.9731ZM53.2837 9.59277H55.9095V20.7564H53.2837V9.59277ZM54.6168 4.87746C54.1724 4.87746 53.8088 5.03866 53.5058 5.32078C53.2029 5.60289 53.0413 5.96561 53.0413 6.40893C53.0413 6.8321 53.2029 7.19481 53.5058 7.47693C53.8088 7.75904 54.1724 7.9001 54.6168 7.9001C55.0611 7.9001 55.4449 7.73889 55.7277 7.47693C56.0307 7.19481 56.1923 6.8321 56.1923 6.40893C56.1923 5.98576 56.0307 5.62304 55.7277 5.32078C55.4651 5.03866 55.0813 4.87746 54.6168 4.87746ZM65.2211 9.49202C64.7363 9.39126 64.2313 9.33081 63.7466 9.33081C62.5549 9.33081 61.4641 9.59277 60.5552 10.1167C59.6462 10.6406 58.9191 11.3661 58.4545 12.2728C57.9698 13.1998 57.7274 14.2678 57.7274 15.497C57.7274 16.565 57.9698 17.5121 58.4343 18.3786C58.8989 19.2249 59.5453 19.9101 60.4138 20.3735C61.2419 20.837 62.2115 21.0788 63.3022 21.0788C64.5545 21.0788 65.6251 20.8168 66.4734 20.3332L66.4936 20.3131V17.895L66.3926 17.9756C66.0088 18.2577 65.5645 18.4995 65.1201 18.6405C64.6555 18.8017 64.2313 18.8824 63.8678 18.8824C62.8174 18.8824 61.9893 18.5801 61.4035 17.9151C60.7976 17.2703 60.4946 16.3836 60.4946 15.2753C60.4946 14.1267 60.7976 13.2199 61.4237 12.555C62.0499 11.89 62.878 11.5474 63.888 11.5474C64.7363 11.5474 65.6049 11.8295 66.3926 12.3938L66.4936 12.4744V9.91519L66.4734 9.89504C66.13 9.75398 65.7462 9.59277 65.2211 9.49202ZM73.8863 9.41142C73.2399 9.41142 72.634 9.61293 72.1088 10.0361C71.6645 10.3988 71.3615 10.9227 71.0989 11.5474H71.0787V9.59277H68.4529V20.7564H71.0787V15.0537C71.0787 14.0864 71.2807 13.2804 71.7251 12.696C72.1694 12.0915 72.735 11.7892 73.4217 11.7892C73.6641 11.7892 73.9065 11.8497 74.2095 11.89C74.4923 11.9706 74.6943 12.0512 74.8356 12.1519L74.9366 12.2325V9.61293L74.876 9.59277C74.6943 9.47187 74.3307 9.41142 73.8863 9.41142ZM81.0366 9.35096C79.1986 9.35096 77.7241 9.89504 76.6939 10.963C75.6436 12.031 75.1386 13.5021 75.1386 15.3559C75.1386 17.0889 75.6638 18.4995 76.6737 19.5272C77.6837 20.5347 79.0572 21.0587 80.7741 21.0587C82.5717 21.0587 84.0058 20.5146 85.036 19.4264C86.0863 18.3383 86.5913 16.8874 86.5913 15.094C86.5913 13.3207 86.1065 11.9101 85.1168 10.8824C84.1674 9.85474 82.7737 9.35096 81.0366 9.35096ZM83.1373 17.9353C82.6525 18.5599 81.885 18.8622 80.9356 18.8622C79.9863 18.8622 79.2188 18.5599 78.6734 17.895C78.128 17.2703 77.8654 16.3635 77.8654 15.2149C77.8654 14.026 78.1482 13.1192 78.6734 12.4744C79.2188 11.8295 79.9661 11.5071 80.9154 11.5071C81.8446 11.5071 82.5717 11.8094 83.0969 12.4341C83.6221 13.0587 83.9049 13.9655 83.9049 15.1544C83.8645 16.3635 83.6423 17.3106 83.1373 17.9353ZM92.4489 14.2275C91.6207 13.8849 91.0956 13.623 90.8532 13.4013C90.6512 13.1998 90.5502 12.9177 90.5502 12.555C90.5502 12.2527 90.6714 11.9504 90.9744 11.7489C91.2774 11.5474 91.6207 11.4467 92.1257 11.4467C92.5701 11.4467 93.0346 11.5273 93.479 11.6482C93.9234 11.7691 94.3274 11.9504 94.6505 12.1922L94.7515 12.2728V9.81444L94.6909 9.79428C94.388 9.67338 93.984 9.55247 93.4992 9.45172C93.0145 9.37111 92.5701 9.33081 92.2065 9.33081C90.9542 9.33081 89.9241 9.63308 89.1161 10.2981C88.3082 10.9227 87.9244 11.7691 87.9244 12.7565C87.9244 13.2804 88.0052 13.7439 88.187 14.1267C88.3688 14.5096 88.6313 14.8723 88.9949 15.1746C89.3585 15.4567 89.8837 15.7791 90.6108 16.0814C91.2168 16.3433 91.6813 16.5448 91.9641 16.7061C92.2469 16.8673 92.4287 17.0486 92.5701 17.1897C92.6711 17.3509 92.7317 17.5524 92.7317 17.8144C92.7317 18.5599 92.1661 18.9227 91.0148 18.9227C90.5704 18.9227 90.1058 18.8421 89.5605 18.6607C89.0151 18.4793 88.5101 18.2174 88.086 17.9151L87.985 17.8345V20.3937L88.0456 20.4138C88.4294 20.5952 88.8939 20.7161 89.4595 20.8571C90.025 20.9579 90.53 21.0385 90.9744 21.0385C92.3277 21.0385 93.4386 20.7362 94.2264 20.0713C95.0343 19.4264 95.4585 18.6002 95.4585 17.5322C95.4585 16.7867 95.2565 16.1217 94.8121 15.6179C94.2264 15.1343 93.4992 14.6305 92.4489 14.2275ZM102.387 9.35096C100.549 9.35096 99.0741 9.89504 98.0439 10.963C97.0138 12.031 96.4886 13.5021 96.4886 15.3559C96.4886 17.0889 97.0138 18.4995 98.0237 19.5272C99.0337 20.5347 100.407 21.0587 102.124 21.0587C103.922 21.0587 105.356 20.5146 106.386 19.4264C107.436 18.3383 107.941 16.8874 107.941 15.094C107.941 13.3207 107.456 11.9101 106.467 10.8824C105.517 9.85474 104.124 9.35096 102.387 9.35096ZM104.467 17.9353C103.982 18.5599 103.215 18.8622 102.265 18.8622C101.296 18.8622 100.549 18.5599 100.003 17.895C99.4578 17.2703 99.1952 16.3635 99.1952 15.2149C99.1952 14.026 99.478 13.1192 100.003 12.4744C100.549 11.8295 101.296 11.5071 102.245 11.5071C103.154 11.5071 103.902 11.8094 104.427 12.4341C104.952 13.0587 105.235 13.9655 105.235 15.1544C105.235 16.3635 104.972 17.3106 104.467 17.9353ZM121.979 11.7489V9.59277H119.333V6.28802L119.253 6.30817L116.748 7.05376L116.687 7.07391V9.59277H112.728V8.18221C112.728 7.53738 112.89 7.03361 113.173 6.71119C113.456 6.38878 113.88 6.22757 114.405 6.22757C114.768 6.22757 115.152 6.30817 115.576 6.48953L115.677 6.54998V4.27293L115.617 4.25278C115.253 4.13187 114.768 4.05127 114.142 4.05127C113.355 4.05127 112.668 4.23263 112.042 4.53489C111.415 4.87746 110.951 5.34093 110.607 5.96561C110.264 6.57014 110.082 7.25527 110.082 8.04115V9.59277H108.244V11.7288H110.082V20.7564H112.728V11.7489H116.687V17.4919C116.687 19.8496 117.798 21.0385 120.02 21.0385C120.384 21.0385 120.767 20.9781 121.131 20.9176C121.515 20.837 121.798 20.7362 121.959 20.6556L121.979 20.6355V18.4793L121.878 18.5599C121.717 18.6607 121.575 18.7413 121.333 18.8018C121.131 18.8622 120.949 18.8824 120.808 18.8824C120.283 18.8824 119.919 18.7614 119.657 18.4592C119.414 18.1771 119.293 17.7136 119.293 17.0285V11.7489H121.979Z" fill="#555555"/>
<path d="M0 0H12.3818V12.3525H0V0Z" fill="#555555"/>
<path d="M13.6748 0H26.0566V12.3525H13.6748V0Z" fill="#555555"/>
<path d="M0 13.6421H12.3818V25.9946H0V13.6421Z" fill="#555555"/>
<path d="M13.6748 13.6421H26.0566V25.9946H13.6748V13.6421Z" fill="#555555"/>
</g>
<defs>
<clipPath id="clip0_194_427">
<rect width="122" height="25.9947" fill="white"/>
</clipPath>
</defs>
</svg>
